# AST/ASF file generated using VICON BodyLanguage
# -----------------------------------------------
:version 1.10
:name VICON
:units
  mass 1.0
  length 0.45
  angle deg
:documentation
   .ast/.asf automatically generated from VICON data using
   VICON BodyBuilder and BodyLanguage model FoxedUp or BRILLIANT.MOD
:root
   order TX TY TZ RX RY RZ
   axis XYZ
   position 0 0 0  
   orientation 0 0 0 
:bonedata
  begin
     id 1 
     name lhipjoint
     direction 0.653368 -0.678499 0.335782 
     length 2.51848 
     axis 0 0 0  XYZ
  end
  begin
     id 2 
     name lfemur
     direction 0.34202 -0.939693 0  
     length 6.57749  
     axis 0 0 20  XYZ
    dof rx ry rz
    limits (-160.0 20.0)
           (-70.0 70.0)
           (-60.0 70.0)
  end
  begin
     id 3 
     name ltibia
     direction 0.34202 -0.939693 0   
     length 7.94618   
     axis 0 0 20   XYZ
    dof rx
    limits (-10.0 170.0)
  end
  begin
     id 4 
     name lfoot
     direction 0.0811271 -0.222895 0.971461   
     length 2.31339   
     axis -90 7.62852e-016 20   XYZ
    dof rx rz
    limits (-45.0 90.0)
           (-70.0 20.0)
  end
  begin
     id 5 
     name ltoes
     direction 1.53568e-011 -4.21885e-011 1   
     length 1.15935   
     axis -90 7.62852e-016 20   XYZ
    dof rx
    limits (-90.0 20.0)
  end
  begin
     id 6 
     name rhipjoint
     direction -0.640058 -0.688614 0.340788   
     length 2.48149  
     axis 0 0 0  XYZ 
  end
  begin
     id 7 
     name rfemur
     direction -0.34202 -0.939693 0   
     length 6.57875   
     axis 0 0 -20   XYZ
    dof rx ry rz
    limits (-160.0 20.0)
           (-70.0 70.0)
           (-70.0 60.0)
  end
  begin
     id 8 
     name rtibia
     direction -0.34202 -0.939693 0   
     length 7.977   
     axis 0 0 -20   XYZ
    dof rx
    limits (-10.0 170.0)
 end
 begin
     id 9 
     name rfoot
     direction -0.0979793 -0.269196 0.958089   
     length 2.19857  
     axis -90 -7.62852e-016 -20   XYZ
    dof rx rz
    limits (-45.0 90.0)
           (-20.0 70.0)
  end
  begin
     id 10 
     name rtoes
     direction -1.53556e-011 -4.21868e-011 1   
     length 1.09838   
     axis -90 -7.62852e-016 -20   XYZ
    dof rx
    limits (-90.0 20.0)
  end
  begin
     id 11 
     name lowerback
     direction 0.0149039 0.998517 -0.0523597   
     length 2.10809   
     axis 0 0 0   XYZ
    dof rx ry rz
    limits (-20.0 45.0)
           (-30.0 30.0)
           (-30.0 30.0)
  end
  begin
     id 12 
     name upperback
     direction -0.00882659 0.999418 -0.0329624   
     length 2.1102   
     axis 0 0 0   XYZ
    dof rx ry rz
    limits (-20.0 45.0)
           (-30.0 30.0)
           (-30.0 30.0)
  end
  begin
     id 13 
     name thorax
     direction -0.0165585 0.999826 -0.0085833   
     length 2.11039   
     axis 0 0 0   XYZ
    dof rx ry rz
    limits (-20.0 45.0)
           (-30.0 30.0)
           (-30.0 30.0)
  end
  begin
     id 14 
     name lowerneck
     direction -0.0130877 0.999911 0.00260353   
     length 1.73253   
     axis 0 0 0   XYZ
    dof rx ry rz
    limits (-20.0 45.0)
           (-30.0 30.0)
           (-30.0 30.0)
  end
  begin
     id 15 
     name upperneck
     direction -0.0348454 0.928205 -0.370435   
     length 1.66692   
     axis 0 0 0   XYZ
    dof rx ry rz
    limits (-20.0 45.0)
           (-30.0 30.0)
           (-30.0 30.0)
  end
  begin
     id 16
     name head
     direction -0.00807754 0.992494 -0.122026  
     length 1.72765  
     axis 0 0 0   XYZ
    dof rx ry rz
    limits (-20.0 45.0)
           (-30.0 30.0)
           (-30.0 30.0)
  end
  begin
     id 17 
     name lclavicle
     direction 0.987582 0.144023 0.0627671  
     length 3.49235  
     axis 0 0 0   XYZ
    dof ry rz
    limits (-20.0 10.0)
           (0.0 20.0)
  end
  begin
     id 18 
     name lhumerus
     direction 1 -4.48958e-011 -1.45183e-018   
     length 5.41917   
     axis 180 -30 -90   XYZ
    dof rx ry rz
    limits (-60.0 90.0)
           (-90.0 90.0)
           (-90.0 90.0)
  end
  begin
     id 19
     name lradius
     direction 1 -4.48999e-011 5.75106e-027   
     length 2.44373   
     axis 180 -30 -90   XYZ
    dof rx
    limits (-10.0 170.0)
  end
  begin
     id 20
     name lwrist
     direction 1 -4.48987e-011 1.53461e-026   
     length 1.22186   
     axis -1.09697e-014 90 90   XYZ
    dof ry
    limits (-180.0 0.0)
 end
  begin
     id 21 
     name lhand
     direction 1 -4.48881e-011 3.06923e-026   
     length 0.727502   
     axis -1.95843e-014 90 90   XYZ
    dof rx rz
    limits (-90.0 90.0)
           (-45.0 45.0)
  end
  begin
     id 22 
     name lfingers
     direction 1 -4.48907e-011 6.13845e-026   
     length 0.586531   
     axis -3.91686e-014 90 90   XYZ
    dof rx
    limits (0.0 90.0)
  end
  begin
     id 23
     name lthumb
     direction 0.707107 -6.3487e-011 0.707107   
     length 0.842145   
     axis -90 45 2.85299e-015   XYZ
    dof rx rz
    limits (-45.0 45.0)
           (-45.0 45.0)
  end
  begin
     id 24 
     name rclavicle
     direction -0.980998 0.169556 0.0943023   
     length 3.29272  
     axis 0 0 0   XYZ 
    dof ry rz
    limits (-10.0 20.0)
           (-20.0 0.0)
  end
  begin
     id 25 
     name rhumerus
     direction -1 -1.83355e-005 2.45537e-005  
     length 5.58976   
     axis 180 30 90   XYZ
    dof rx ry rz
    limits (-90.0 60.0)
           (-90.0 90.0)
           (-90.0 90.0)
  end
  begin
     id 26 
     name rradius
     direction -1 -4.48967e-011 5.97228e-027   
     length 2.4806   
     axis 180 30 90   XYZ
    dof rx
    limits (-10.0 170.0)
  end
  begin
     id 27 
     name rwrist
     direction -1 -4.48963e-011 1.53461e-026   
     length 1.2403   
     axis -1.09697e-014 -90 -90   XYZ
    dof ry
    limits (-180.0 0.0)
  end
  begin
     id 28
     name rhand
     direction -1 -4.48881e-011 3.06923e-026   
     length 0.816009   
     axis -1.95843e-014 -90 -90   XYZ
    dof rx rz
    limits (-90.0 90.0)
           (-45.0 45.0)
  end
  begin
     id 29
     name rfingers
     direction -1 -4.49018e-011 6.13845e-026   
     length 0.657887   
     axis -3.91686e-014 -90 -90   XYZ
    dof rx
    limits (0.0 90.0)
  end
  begin
     id 30
     name rthumb
     direction -0.707107 -6.34872e-011 0.707107   
     length 0.944599   
     axis -90 -45 -2.85299e-015   XYZ
    dof rx rz
    limits (-45.0 45.0)
           (-45.0 45.0)
  end
:hierarchy
  begin
    root lhipjoint rhipjoint lowerback
    lhipjoint lfemur
    lfemur ltibia
    ltibia lfoot
    lfoot ltoes
    rhipjoint rfemur
    rfemur rtibia
    rtibia rfoot
    rfoot rtoes
    lowerback upperback
    upperback thorax
    thorax lowerneck lclavicle rclavicle
    lowerneck upperneck
    upperneck head
    lclavicle lhumerus
    lhumerus lradius
    lradius lwrist
    lwrist lhand lthumb
    lhand lfingers
    rclavicle rhumerus
    rhumerus rradius
    rradius rwrist
    rwrist rhand rthumb
    rhand rfingers
  end

#!OML:ASF F:\VICON\USERDATA\INSTALL\rory3\rory3.ASF
:FULLY-SPECIFIED
:DEGREES
254
root -0.0272587 17.1514 17.4928 -157.898 -37.2454 -180.4
lowerback -13.4699 -0.0636203 4.83929
upperback -4.70656 -1.32156 3.22363
thorax 2.57557 -0.875437 0.427349
lowerneck -11.5646 1.38636 -1.62546
upperneck 43.8292 -2.70839 -0.150287
head 18.4752 -2.93044 -0.785238
rclavicle -1.32589e-013 -2.54444e-014
rhumerus -40.1832 -8.02028 -71.4317
rradius 13.1435
rwrist 5.27024
rhand -1.39609 14.4055
rfingers 7.12502
rthumb 24.2525 -14.0807
lclavicle -1.32589e-013 -2.54444e-014
lhumerus -46.2411 9.70217 74.2366
lradius 46.6078
lwrist 1.16829
lhand -0.224483 16.7123
lfingers 7.12502
lthumb 25.3753 45.0438
rfemur -30.4287 4.12371 31.0809
rtibia 25.2737
rfoot -47.9304 -34.0229
rtoes 44.065
lfemur -13.1216 17.3359 -25.2898
ltibia 38.856
lfoot 21.1371 43.0246
ltoes 35.3364
255
root -0.0141033 17.1523 17.507 -157.691 -37.2281 -180.624
lowerback -13.4323 -0.166508 4.56529
upperback -4.75193 -1.416 3.21907
thorax 2.51188 -0.922283 0.562685
lowerneck -11.5338 1.42744 -1.96986
upperneck 43.7793 -2.62762 0.0805116
head 18.4434 -2.92498 -0.596013
rclavicle -7.11649e-014 1.90833e-014
rhumerus -39.9968 -6.63506 -72.3098
rradius 13.2682
rwrist 3.85333
rhand -1.00695 14.0646
rfingers 7.12502
rthumb 24.6256 -14.3712
lclavicle -7.11649e-014 1.90833e-014
lhumerus -46.5709 9.92263 74.2738
lradius 46.4347
lwrist 1.16498
lhand -0.132676 16.4298
lfingers 7.12502
lthumb 25.4633 44.7488
rfemur -30.6388 4.4266 30.7902
rtibia 25.3681
rfoot -48.3431 -34.0475
rtoes 44.2434
lfemur -13.0804 17.0712 -25.4987
ltibia 38.721
lfoot 19.7366 43.1487
ltoes 36.1026
256
root -0.00352229 17.152 17.5213 -157.627 -37.1238 -180.646
lowerback -12.9208 -0.193411 4.6672
upperback -5.1072 -1.42885 3.14833
thorax 1.85857 -0.954415 0.442113
lowerneck -11.4114 1.57054 -2.47579
upperneck 44.0352 -2.55544 0.514896
head 18.5847 -2.95878 -0.299671
rclavicle -3.46879e-014 -2.54444e-014
rhumerus -40.4432 -5.24041 -73.1672
rradius 13.4898
rwrist 2.72117
rhand -0.805497 14.0022
rfingers 7.12502
rthumb 24.8186 -14.4071
lclavicle -3.46879e-014 -2.54444e-014
lhumerus -47.4071 10.1577 74.0254
lradius 46.2796
lwrist 1.01697
lhand -0.111906 16.8487
lfingers 7.12502
lthumb 25.4832 45.1648
rfemur -30.8131 5.10589 30.5305
rtibia 25.468
rfoot -49.1086 -33.9313
rtoes 44.7204
lfemur -13.0378 16.7963 -25.6052
ltibia 38.5864
lfoot 19.6803 42.7241
ltoes 35.6717
257
root -0.0035995 17.1537 17.5285 -157.732 -36.9405 -180.549
lowerback -13.3332 0.0766997 4.665
upperback -4.92244 -1.08606 2.92129
thorax 2.27857 -0.768966 0.248373
lowerneck -11.1355 1.37839 -2.05755
upperneck 43.8568 -2.97585 0.538259
head 18.4023 -3.04293 -0.426657
rclavicle -6.95746e-016 -4.77083e-015
rhumerus -40.6833 -6.10006 -73.0811
rradius 13.6581
rwrist 2.95661
rhand -0.882782 14.3485
rfingers 7.12502
rthumb 24.7446 -14.071
lclavicle -6.95746e-016 -4.77083e-015
lhumerus -47.267 9.70632 73.9941
lradius 45.7997
lwrist 0.84618
lhand -0.054868 16.8059
lfingers 7.12502
lthumb 25.5378 45.1142
rfemur -30.8132 5.41177 30.4611
rtibia 25.5549
rfoot -49.3629 -33.7251
rtoes 45.1124
lfemur -12.8671 16.8156 -25.6288
ltibia 38.4462
lfoot 21.3877 41.4758
ltoes 33.8183
258
root -0.00463628 17.1541 17.5371 -157.7 -36.7119 -180.668
lowerback -12.8084 0.402649 4.88807
upperback -5.41652 -0.630445 2.4531
thorax 1.48177 -0.579449 -0.290287
lowerneck -10.3235 1.33007 -1.60418
upperneck 44.0557 -3.45769 0.687089
head 18.3142 -3.1968 -0.527547
rclavicle -2.15681e-014 -2.38542e-015
rhumerus -41.9497 -6.68505 -73.1264
rradius 13.9135
rwrist 2.78833
rhand -0.919423 14.4772
rfingers 7.12502
rthumb 24.7094 -13.9472
lclavicle -2.15681e-014 -2.38542e-015
lhumerus -48.1292 8.7771 73.6187
lradius 45.3613
lwrist 0.864589
lhand 0.09074 16.2901
lfingers 7.12502
lthumb 25.6773 44.5784
rfemur -30.8414 5.12682 30.4282
rtibia 25.6503
rfoot -48.7246 -33.8218
rtoes 44.6618
lfemur -12.6548 16.7966 -25.832
ltibia 38.2698
lfoot 22.2688 40.3521
ltoes 32.6014
259
root -0.000853758 17.1513 17.5484 -157.523 -36.5349 -180.854
lowerback -13.5708 0.22491 4.34006
upperback -4.86233 -0.847115 2.68109
thorax 2.47758 -0.640549 0.213036
lowerneck -10.865 1.35254 -1.62626
upperneck 43.8378 -3.1028 0.361845
head 18.3084 -3.05275 -0.606405
rclavicle 4.76089e-014 -1.90833e-014
rhumerus -40.8001 -5.66845 -73.6628
rradius 13.9247
rwrist 1.63694
rhand -1.12849 14.3272
rfingers 7.12502
rthumb 24.509 -14.1244
lclavicle 4.76089e-014 -1.90833e-014
lhumerus -47.5906 10.0597 73.5965
lradius 44.6116
lwrist 0.497749
lhand 0.127851 15.753
lfingers 7.12502
lthumb 25.7128 44.0361
rfemur -31.031 4.77912 30.3651
rtibia 25.78
rfoot -47.9774 -33.9772
rtoes 43.9951
lfemur -12.479 16.6228 -26.0746
ltibia 38.0186
lfoot 21.7506 40.2186
ltoes 32.9496
260
root 0.00046105 17.1455 17.5587 -157.451 -36.5259 -180.936
lowerback -13.9177 0.163554 4.19732
upperback -4.61089 -0.927535 2.72205
thorax 2.92945 -0.662223 0.318926
lowerneck -11.1744 1.35355 -1.69072
upperneck 43.6843 -2.94128 0.297953
head 18.2931 -2.9774 -0.589674
rclavicle 8.06072e-014 -2.54444e-014
rhumerus -40.3468 -5.44771 -73.7612
rradius 14.1005
rwrist 1.34191
rhand -0.93575 14.2166
rfingers 7.12502
rthumb 24.6938 -14.2099
lclavicle 8.06072e-014 -2.54444e-014
lhumerus -47.49 10.7081 73.542
lradius 44.1253
lwrist 0.255534
lhand 0.175143 15.5336
lfingers 7.12502
lthumb 25.7581 43.8101
rfemur -31.1983 4.50292 30.3653
rtibia 25.987
rfoot -47.7317 -33.9199
rtoes 43.7834
lfemur -12.2383 16.3025 -26.1412
ltibia 37.7899
lfoot 20.8983 40.3997
ltoes 33.5458
261
root -0.0147042 17.1387 17.5569 -157.751 -36.265 -180.895
lowerback -13.6999 0.274224 4.41604
upperback -4.61927 -0.782929 2.56216
thorax 2.80076 -0.591166 0.0537451
lowerneck -11.0938 1.43817 -1.6334
upperneck 43.7391 -2.89484 0.40057
head 18.3063 -2.94484 -0.545879
rclavicle -4.6615e-014 -1.27222e-014
rhumerus -40.609 -5.45936 -73.827
rradius 14.2196
rwrist 1.38407
rhand -0.742481 14.2799
rfingers 7.12502
rthumb 24.879 -14.1211
lclavicle -4.6615e-014 -1.27222e-014
lhumerus -47.9362 10.7384 73.3787
lradius 43.6866
lwrist 0.11629
lhand 0.0789023 15.705
lfingers 7.12502
lthumb 25.6659 43.9949
rfemur -30.9819 4.2095 30.4059
rtibia 26.2517
rfoot -47.3222 -33.6497
rtoes 43.6294
lfemur -11.6032 16.2325 -26.12
ltibia 37.6385
lfoot 20.5358 39.6758
ltoes 33.2452
262
root -0.00882121 17.1364 17.5648 -157.67 -36.262 -180.982
lowerback -13.3128 0.347083 4.53347
upperback -4.9933 -0.671306 2.3262
thorax 2.19845 -0.561517 -0.236484
lowerneck -10.64 1.47878 -1.4775
upperneck 43.8018 -3.02289 0.52146
head 18.2254 -2.98451 -0.540368
rclavicle -3.38928e-014 -9.54166e-015
rhumerus -41.2985 -5.29962 -74.1463
rradius 14.3056
rwrist 1.03904
rhand -0.795185 14.2357
rfingers 7.12502
rthumb 24.8285 -14.1723
lclavicle -3.38928e-014 -9.54166e-015
lhumerus -48.6675 10.3538 73.1922
lradius 43.3497
lwrist 0.107342
lhand -0.026047 16.2595
lfingers 7.12502
lthumb 25.5654 44.5638
rfemur -31.1934 4.02977 30.3555
rtibia 26.4724
rfoot -47.0555 -33.6713
rtoes 43.3108
lfemur -11.5235 15.9653 -26.202
ltibia 37.608
lfoot 21.8886 38.1256
ltoes 31.1528
263
root 0.00280728 17.1261 17.5785 -157.526 -36.4295 -180.933
lowerback -13.3069 0.318637 4.57019
upperback -5.18755 -0.723058 2.31493
thorax 1.98942 -0.601978 -0.275096
lowerneck -10.4656 1.48606 -1.46787
upperneck 43.8353 -3.02888 0.463233
head 18.1972 -3.00641 -0.571444
rclavicle 5.2181e-014 3.18055e-014
rhumerus -41.5548 -4.7456 -74.5726
rradius 14.4148
rwrist 0.3904
rhand -0.78138 13.9131
rfingers 7.12502
rthumb 24.8417 -14.493
lclavicle 5.2181e-014 3.18055e-014
lhumerus -49.1421 10.3187 73.1887
lradius 43.0753
lwrist 0.201581
lhand 0.110881 16.5316
lfingers 7.12502
lthumb 25.6966 44.8171
rfemur -31.6122 2.02352 31.0312
rtibia 26.6393
rfoot -45.3862 -32.6499
rtoes 42.7187
lfemur -11.6885 15.5857 -26.1452
ltibia 37.6833
lfoot 23.2021 36.4337
ltoes 28.5817
264
root 0.0139672 17.1179 17.5891 -157.484 -36.5232 -180.903
lowerback -13.4733 0.340869 4.42349
upperback -5.15487 -0.690132 2.36516
thorax 2.11726 -0.581637 -0.137135
lowerneck -10.5031 1.41768 -1.64821
upperneck 43.878 -3.12895 0.547744
head 18.2408 -3.06477 -0.518414
rclavicle 5.52621e-014 -8.74653e-015
rhumerus -41.5244 -4.55567 -74.6594
rradius 14.4189
rwrist 0.0969601
rhand -0.82768 14.0653
rfingers 7.12502
rthumb 24.7974 -14.347
lclavicle 5.52621e-014 -8.74653e-015
lhumerus -49.1778 10.6362 73.224
lradius 42.4802
lwrist -0.077962
lhand 0.162895 16.5721
lfingers 7.12502
lthumb 25.7464 44.8503
rfemur -31.7763 1.79343 31.1736
rtibia 26.7601
rfoot -45.4585 -32.2114
rtoes 43.2667
lfemur -11.691 15.1982 -26.0617
ltibia 37.8218
lfoot 22.8107 35.5967
ltoes 28.0292
265
root 0.023348 17.1156 17.6004 -157.503 -36.6077 -180.768
lowerback -13.5629 0.411697 4.42588
upperback -5.17422 -0.608277 2.39253
thorax 2.14836 -0.542872 -0.0981413
lowerneck -10.4988 1.35542 -1.87689
upperneck 43.9424 -3.2778 0.763134
head 18.293 -3.13771 -0.40433
rclavicle -1.13904e-013 -1.19271e-014
rhumerus -41.5928 -4.77545 -74.4518
rradius 14.4334
rwrist 0.242242
rhand -0.638335 14.2264
rfingers 7.12502
rthumb 24.9788 -14.1608
lclavicle -1.13904e-013 -1.19271e-014
lhumerus -49.2285 11.1948 73.0108
lradius 41.7688
lwrist -0.898166
lhand 0.385146 16.7264
lfingers 7.12502
lthumb 25.9592 44.9737
rfemur -31.8784 1.83183 31.3109
rtibia 26.7587
rfoot -45.3067 -32.3699
rtoes 43.1032
lfemur -11.6943 14.8119 -25.8769
ltibia 37.962
lfoot 22.0907 34.9537
ltoes 28.0696
266
root 0.0305691 17.1156 17.6126 -157.524 -36.7418 -180.692
lowerback -13.5106 0.472207 4.51167
upperback -5.23188 -0.535005 2.34315
thorax 2.06066 -0.511294 -0.186163
lowerneck -10.535 1.33087 -2.10467
upperneck 44.0427 -3.40098 1.04587
head 18.3815 -3.19268 -0.256044
rclavicle 2.37548e-014 -1.11319e-014
rhumerus -41.806 -5.07578 -74.3066
rradius 14.5981
rwrist 0.288849
rhand -0.0445867 13.7236
rfingers 7.12502
rthumb 25.5477 -14.5833
lclavicle 2.37548e-014 -1.11319e-014
lhumerus -49.3279 11.4872 72.8384
lradius 41.1133
lwrist -1.54166
lhand 0.426504 16.731
lfingers 7.12502
lthumb 25.9988 44.9724
rfemur -31.904 1.68315 31.443
rtibia 26.6619
rfoot -45.3169 -32.2922
rtoes 43.2429
lfemur -11.5808 14.4752 -25.699
ltibia 37.9475
lfoot 22.0788 33.7417
ltoes 27.1859
267
root 0.0334515 17.1129 17.6183 -157.799 -36.8028 -180.399
lowerback -13.408 0.569723 4.79341
upperback -5.24372 -0.433856 2.30903
thorax 1.99349 -0.465629 -0.364123
lowerneck -10.4785 1.31655 -2.10748
upperneck 44.0449 -3.47409 1.15347
head 18.3732 -3.20981 -0.216726
rclavicle -2.89232e-014 4.45278e-014
rhumerus -42.0312 -5.31349 -74.2809
rradius 14.7101
rwrist 0.213894
rhand 0.295001 13.3178
rfingers 7.12502
rthumb 25.8729 -14.942
lclavicle -2.89232e-014 4.45278e-014
lhumerus -49.5379 11.407 72.8422
lradius 40.6592
lwrist -1.5495
lhand 0.433599 16.4959
lfingers 7.12502
lthumb 26.0056 44.7364
rfemur -31.7355 1.71267 31.7458
rtibia 26.5636
rfoot -45.2926 -32.3221
rtoes 43.3206
lfemur -11.2709 14.3614 -25.3316
ltibia 37.8591
lfoot 22.0712 32.574
ltoes 26.1968
